<svg id="Livello_1" data-name="Livello 1" xmlns="http://www.w3.org/2000/svg" viewBox="0 0 617.32 141.73"><title>Electrolux_Professional_logo_master_blue_RGB</title><path d="M133.39,301c32,0,63.09,26.4,63.09,58.48a71.53,71.53,0,0,1-13.35,1.43c-33.72,0-61.88-27.13-63.15-59.9Zm49.73-66.62a71,71,0,0,1,13.36,1.4c0,32.11-31.05,58.53-63.1,58.53l-13.4,0c2.2-32.92,29.43-59.92,63.15-59.92m20,3.21a63.17,63.17,0,0,1,43.22,60c.07,27.6-17.67,51.29-43.22,60ZM112.28,368.5H254V226.77H112.28Z" transform="translate(-112.28 -226.77)" style="fill:#011e41"/><path d="M301.44,289.23V280.3h29.49V268.9H301.44V252.32h31.37V241H289.37v47.75c0,12.07,5.14,20.32,17.21,22a3.31,3.31,0,0,0,.7.11h.22a34.58,34.58,0,0,0,3.82.23h22.34V299.72H311.42c-3.84,0-10-1.89-10-10.5" transform="translate(-112.28 -226.77)" style="fill:#011e41"/><polygon points="229.95 47.32 229.95 84.32 242.02 84.32 242.02 47.08 242.02 14.18 229.95 14.18 229.95 47.32" style="fill:#011e41"/><path d="M374.58,280.19c.51-6.17,6.77-11.12,14.35-11.12,7.08,0,12.84,5.05,12.84,11.12Zm14.35-21.43c-15.26,0-26.69,10.51-26.69,26.89v.41c0,16,11,26.28,27,26.28,7.68,0,14.86-2.12,21.43-9.1l-7.28-7.08C399.54,300,395.8,302,389.64,302c-9,0-15-5.26-15.36-13.35H413.9c.2-2,.2-4.24.2-4.24,0-14.26-10-25.68-25.17-25.68" transform="translate(-112.28 -226.77)" style="fill:#011e41"/><path d="M448,269.58A17.08,17.08,0,0,1,461,275.14l7.48-7.79A26.8,26.8,0,0,0,448,258.56c-15.36,0-27.7,11.42-27.7,27s12.33,27,27.7,27a26.8,26.8,0,0,0,20.42-8.79L461,296A17.08,17.08,0,0,1,448,301.52c-8.89,0-15.67-6.77-15.67-16s6.77-16,15.67-16" transform="translate(-112.28 -226.77)" style="fill:#011e41"/><path d="M488,289.25h0V271.34h11v-11H488V240.95H476v49h0c.35,11.39,5.53,19.16,17.18,20.79a3.12,3.12,0,0,0,.7.11h.22a34.59,34.59,0,0,0,3.82.23h1.28l0-11.35H498c-3.84,0-10-1.89-10-10.5" transform="translate(-112.28 -226.77)" style="fill:#011e41"/><path d="M521.15,267.91v-7.54h-12v50.72h12V284.42c0-8.35,5.33-13.58,13.68-13.58a24.2,24.2,0,0,1,5,.5V259.66a25.82,25.82,0,0,0-3.62-.3c-7.25,0-12.68,3.32-15.1,8.55" transform="translate(-112.28 -226.77)" style="fill:#011e41"/><path d="M569.4,301.63a15.9,15.9,0,1,1,15.7-15.9,15.51,15.51,0,0,1-15.7,15.9m0-42.77c-15.4,0-27.68,11.67-27.68,26.87S554,312.6,569.4,312.6s27.67-11.68,27.67-26.87-12.38-26.87-27.67-26.87" transform="translate(-112.28 -226.77)" style="fill:#011e41"/><polygon points="492.22 46.11 492.22 84.32 504.3 84.32 504.3 46.6 504.3 14.17 492.22 14.17 492.22 46.11" style="fill:#011e41"/><path d="M660.14,289.85c0,8-4.73,11.48-11.07,11.48S638,297.9,638,290V260.37H625.82V291c0,14.49,10.57,21.44,23.15,21.44s23.34-7,23.34-21.74V260.37H660.14Z" transform="translate(-112.28 -226.77)" style="fill:#011e41"/><polygon points="605.72 68.1 598.11 57.45 607.53 44.6 615.61 33.6 602.43 33.6 591.46 48.79 580.39 33.6 567.31 33.6 574.81 43.86 584.82 57.55 574.33 72.16 565.6 84.32 578.58 84.32 591.46 66.4 604.34 84.32 617.32 84.32 605.72 68.1" style="fill:#011e41"/><polygon points="602.95 127.56 602.95 103.22 607.96 103.22 607.96 122.96 617.32 122.96 617.32 127.56 602.95 127.56" style="fill:#011e41"/><path d="M596.37,354.8a12.61,12.61,0,1,1,12.86-12.59A12.58,12.58,0,0,1,596.37,354.8Zm0-20.62a7.88,7.88,0,0,0-7.89,8,7.89,7.89,0,1,0,15.79,0A7.88,7.88,0,0,0,596.37,334.18Z" transform="translate(-112.28 -226.77)" style="fill:#011e41"/><rect x="445.34" y="103.22" width="5.01" height="24.34" style="fill:#011e41"/><path d="M528.26,354.74c-4.39,0-7.82-2-9.41-5.6l-.14-.31,3.83-2.4.19.38a6,6,0,0,0,5.57,3.37c3.34,0,3.6-2.05,3.6-2.68,0-1.85-1.73-2.59-4.55-3.66-3.7-1.39-7-3-7-7.5,0-3.91,3.23-6.74,7.69-6.74a8.58,8.58,0,0,1,7.6,4l.21.32-3.65,2.51-.22-.34a4.22,4.22,0,0,0-3.87-1.91c-1.64,0-2.82.89-2.82,2.11,0,1.5.94,1.95,3.67,3l1.43.57c4,1.62,6.53,3.44,6.53,7.53C536.9,351.92,533.59,354.74,528.26,354.74Z" transform="translate(-112.28 -226.77)" style="fill:#011e41"/><path d="M491.49,354.74c-4.39,0-7.82-2-9.41-5.6l-.14-.31,3.83-2.4.19.38a6,6,0,0,0,5.56,3.37c3.34,0,3.6-2.05,3.6-2.68,0-1.85-1.73-2.59-4.55-3.66-3.7-1.39-7-3-7-7.5,0-3.91,3.23-6.74,7.69-6.74a8.58,8.58,0,0,1,7.6,4l.21.32-3.65,2.51-.22-.34a4.22,4.22,0,0,0-3.87-1.91c-1.64,0-2.82.89-2.82,2.11,0,1.5.94,1.95,3.67,3l1.43.57c4,1.62,6.53,3.44,6.53,7.53C500.12,351.92,496.81,354.74,491.49,354.74Z" transform="translate(-112.28 -226.77)" style="fill:#011e41"/><path d="M454.84,354.33c-5.1,0-7.79-2.73-7.79-7.89V330h15.42v4.6H452.06v4.8h9.74V344h-9.74v2.59a2.84,2.84,0,0,0,3,3.16h7.66v4.6Z" transform="translate(-112.28 -226.77)" style="fill:#011e41"/><polygon points="299.08 127.56 299.08 103.22 314.12 103.22 314.12 107.82 304.08 107.82 304.08 112.95 313.24 112.95 313.24 117.55 304.08 117.55 304.08 127.56 299.08 127.56" style="fill:#011e41"/><path d="M377.78,354.8a12.61,12.61,0,1,1,12.86-12.59A12.58,12.58,0,0,1,377.78,354.8Zm0-20.62a8,8,0,1,0,7.89,8A7.88,7.88,0,0,0,377.78,334.18Z" transform="translate(-112.28 -226.77)" style="fill:#011e41"/><path d="M341,354.33l-5-8.38H332.4v8.38h-5V330h9.55a7.86,7.86,0,0,1,8,7.86,7.55,7.55,0,0,1-4.12,6.86l5.84,9.61Zm-4.51-13a3.29,3.29,0,0,0,3.5-3.46,3.14,3.14,0,0,0-3.16-3.33H332.4v6.79Z" transform="translate(-112.28 -226.77)" style="fill:#011e41"/><path d="M289.37,354.33V330h9.38a8,8,0,1,1,0,16.09h-4.37v8.25Zm9.18-12.85a3.45,3.45,0,0,0,0-6.89h-4.17v6.89Z" transform="translate(-112.28 -226.77)" style="fill:#011e41"/><path d="M690,354.33l-2.37-5.25h-9l-2.37,5.25h-5.37l11-24.34h2.56l11,24.34Zm-4.62-10.25-2.25-5-2.26,5Z" transform="translate(-112.28 -226.77)" style="fill:#011e41"/><polygon points="533.87 127.56 522.73 112.25 522.73 127.56 517.67 127.56 517.67 103.22 522.54 103.22 533.68 118.99 533.68 103.22 538.73 103.22 538.73 127.56 533.87 127.56" style="fill:#011e41"/></svg>